<svg width="25" height="25" viewBox="0 0 25 25" fill="none" xmlns="http://www.w3.org/2000/svg">
<path d="M23.125 25H1.875C0.84125 25 0 24.1587 0 23.125V1.875C0 0.84125 0.84125 0 1.875 0H23.125C24.1587 0 25 0.84125 25 1.875V23.125C25 24.1587 24.1587 25 23.125 25ZM1.875 0.833333C1.30083 0.833333 0.833333 1.30083 0.833333 1.875V23.125C0.833333 23.6992 1.30083 24.1667 1.875 24.1667H23.125C23.6996 24.1667 24.1667 23.6992 24.1667 23.125V1.875C24.1667 1.30083 23.6992 0.833333 23.125 0.833333H1.875Z" fill="black"/>
<path d="M3.74999 4.16666H2.08332C1.85332 4.16666 1.66666 3.97999 1.66666 3.74999V2.08332C1.66666 1.85332 1.85332 1.66666 2.08332 1.66666H3.74999C3.97999 1.66666 4.16666 1.85332 4.16666 2.08332V3.74999C4.16666 3.97999 3.97999 4.16666 3.74999 4.16666ZM2.49999 3.33332H3.33332V2.49999H2.49999V3.33332Z" fill="black"/>
<path d="M7.08333 4.16666H5.41667C5.18667 4.16666 5 3.97999 5 3.74999V2.08332C5 1.85332 5.18667 1.66666 5.41667 1.66666H7.08333C7.31333 1.66666 7.49999 1.85332 7.49999 2.08332V3.74999C7.49999 3.97999 7.31333 4.16666 7.08333 4.16666ZM5.83333 3.33332H6.66666V2.49999H5.83333V3.33332Z" fill="black"/>
<path d="M10.4167 4.16666H8.74999C8.51999 4.16666 8.33333 3.97999 8.33333 3.74999V2.08332C8.33333 1.85332 8.51999 1.66666 8.74999 1.66666H10.4167C10.6467 1.66666 10.8333 1.85332 10.8333 2.08332V3.74999C10.8333 3.97999 10.6467 4.16666 10.4167 4.16666ZM9.16666 3.33332H9.99999V2.49999H9.16666V3.33332Z" fill="black"/>
<path d="M24.5833 5.83333H0.416667C0.186667 5.83333 0 5.64667 0 5.41667V1.875C0 0.84125 0.84125 0 1.875 0H23.125C24.1587 0 25 0.84125 25 1.875V5.41667C25 5.64667 24.8133 5.83333 24.5833 5.83333ZM0.833333 5H24.1667V1.875C24.1667 1.30083 23.6992 0.833333 23.125 0.833333H1.875C1.30083 0.833333 0.833333 1.30083 0.833333 1.875V5Z" fill="black"/>
<path d="M11.25 15.8333H2.08332C1.85332 15.8333 1.66666 15.6467 1.66666 15.4167V7.08334C1.66666 6.85334 1.85332 6.66667 2.08332 6.66667H11.25C11.48 6.66667 11.6667 6.85334 11.6667 7.08334V15.4167C11.6667 15.6467 11.48 15.8333 11.25 15.8333ZM2.49999 15H10.8333V7.50001H2.49999V15Z" fill="black"/>
<path d="M6.66666 15.8333C6.56 15.8333 6.45333 15.7925 6.37208 15.7112L4.16667 13.5058L2.37792 15.2946C2.215 15.4575 1.95167 15.4575 1.78875 15.2946C1.62584 15.1317 1.62584 14.8683 1.78875 14.7054L3.87208 12.6221C4.035 12.4592 4.29833 12.4592 4.46125 12.6221L6.96125 15.1221C7.12416 15.285 7.12416 15.5483 6.96125 15.7112C6.88 15.7925 6.77333 15.8333 6.66666 15.8333Z" fill="black"/>
<path d="M5 11.6667C4.08083 11.6667 3.33333 10.9192 3.33333 9.99999C3.33333 9.08083 4.08083 8.33333 5 8.33333C5.91917 8.33333 6.66667 9.08083 6.66667 9.99999C6.66667 10.9192 5.91917 11.6667 5 11.6667ZM5 9.16666C4.54041 9.16666 4.16666 9.54041 4.16666 9.99999C4.16666 10.4596 4.54041 10.8333 5 10.8333C5.45958 10.8333 5.83333 10.4596 5.83333 9.99999C5.83333 9.54041 5.45958 9.16666 5 9.16666Z" fill="black"/>
<path d="M11.25 15C11.1433 15 11.0367 14.9592 10.9554 14.8779L8.34624 12.2688L6.05207 14.7696C5.89665 14.9396 5.63332 14.9508 5.46332 14.795C5.29374 14.6396 5.28207 14.3758 5.4379 14.2063L8.02582 11.385C8.10249 11.3013 8.2104 11.2525 8.32374 11.25C8.43874 11.245 8.54707 11.2917 8.62749 11.3721L11.5442 14.2888C11.7071 14.4517 11.7071 14.715 11.5442 14.8779C11.4633 14.9592 11.3567 15 11.25 15Z" fill="black"/>
<path d="M22.9167 23.3334H13.75C13.52 23.3334 13.3333 23.1467 13.3333 22.9167V14.5834C13.3333 14.3534 13.52 14.1667 13.75 14.1667H22.9167C23.1467 14.1667 23.3333 14.3534 23.3333 14.5834V22.9167C23.3333 23.1467 23.1467 23.3334 22.9167 23.3334ZM14.1667 22.5H22.5V15H14.1667V22.5Z" fill="black"/>
<path d="M18.3333 23.3333C18.2267 23.3333 18.12 23.2925 18.0388 23.2112L15.8333 21.0058L14.0446 22.7946C13.8817 22.9575 13.6183 22.9575 13.4554 22.7946C13.2925 22.6316 13.2925 22.3683 13.4554 22.2054L15.5388 20.1221C15.7017 19.9591 15.965 19.9591 16.1279 20.1221L18.6279 22.6221C18.7908 22.785 18.7908 23.0483 18.6279 23.2112C18.5467 23.2925 18.44 23.3333 18.3333 23.3333Z" fill="black"/>
<path d="M16.6667 19.1667C15.7475 19.1667 15 18.4192 15 17.5C15 16.5808 15.7475 15.8333 16.6667 15.8333C17.5858 15.8333 18.3333 16.5808 18.3333 17.5C18.3333 18.4192 17.5858 19.1667 16.6667 19.1667ZM16.6667 16.6667C16.2071 16.6667 15.8333 17.0404 15.8333 17.5C15.8333 17.9596 16.2071 18.3333 16.6667 18.3333C17.1263 18.3333 17.5 17.9596 17.5 17.5C17.5 17.0404 17.1263 16.6667 16.6667 16.6667Z" fill="black"/>
<path d="M22.9166 22.5C22.81 22.5 22.7033 22.4591 22.6221 22.3779L20.0129 19.7687L17.7187 22.2696C17.5633 22.4396 17.3 22.4508 17.13 22.295C16.9604 22.1396 16.9487 21.8758 17.1046 21.7062L19.6925 18.885C19.7692 18.8012 19.8771 18.7525 19.9904 18.75C20.1017 18.7454 20.2137 18.7916 20.2942 18.8721L23.2108 21.7887C23.3737 21.9516 23.3737 22.215 23.2108 22.3779C23.13 22.4591 23.0233 22.5 22.9166 22.5Z" fill="black"/>
<path d="M20.4167 9.16666H13.75C13.52 9.16666 13.3333 8.97999 13.3333 8.74999C13.3333 8.51999 13.52 8.33333 13.75 8.33333H20.4167C20.6467 8.33333 20.8333 8.51999 20.8333 8.74999C20.8333 8.97999 20.6467 9.16666 20.4167 9.16666Z" fill="black"/>
<path d="M22.9167 9.16666H22.0833C21.8533 9.16666 21.6667 8.97999 21.6667 8.74999C21.6667 8.51999 21.8533 8.33333 22.0833 8.33333H22.9167C23.1467 8.33333 23.3333 8.51999 23.3333 8.74999C23.3333 8.97999 23.1467 9.16666 22.9167 9.16666Z" fill="black"/>
<path d="M20.4167 12.5H13.75C13.52 12.5 13.3333 12.3133 13.3333 12.0833C13.3333 11.8533 13.52 11.6667 13.75 11.6667H20.4167C20.6467 11.6667 20.8333 11.8533 20.8333 12.0833C20.8333 12.3133 20.6467 12.5 20.4167 12.5Z" fill="black"/>
<path d="M22.9167 12.5H22.0833C21.8533 12.5 21.6667 12.3133 21.6667 12.0833C21.6667 11.8533 21.8533 11.6667 22.0833 11.6667H22.9167C23.1467 11.6667 23.3333 11.8533 23.3333 12.0833C23.3333 12.3133 23.1467 12.5 22.9167 12.5Z" fill="black"/>
<path d="M22.9167 10.8333H16.25C16.02 10.8333 15.8333 10.6467 15.8333 10.4167C15.8333 10.1867 16.02 10 16.25 10H22.9167C23.1467 10 23.3333 10.1867 23.3333 10.4167C23.3333 10.6467 23.1467 10.8333 22.9167 10.8333Z" fill="black"/>
<path d="M14.5833 10.8333H13.75C13.52 10.8333 13.3333 10.6467 13.3333 10.4167C13.3333 10.1867 13.52 10 13.75 10H14.5833C14.8133 10 15 10.1867 15 10.4167C15 10.6467 14.8133 10.8333 14.5833 10.8333Z" fill="black"/>
<path d="M8.74999 18.3333H2.08332C1.85332 18.3333 1.66666 18.1466 1.66666 17.9166C1.66666 17.6866 1.85332 17.5 2.08332 17.5H8.74999C8.97999 17.5 9.16666 17.6866 9.16666 17.9166C9.16666 18.1466 8.97999 18.3333 8.74999 18.3333Z" fill="black"/>
<path d="M11.25 18.3333H10.4167C10.1867 18.3333 10 18.1466 10 17.9166C10 17.6866 10.1867 17.5 10.4167 17.5H11.25C11.48 17.5 11.6667 17.6866 11.6667 17.9166C11.6667 18.1466 11.48 18.3333 11.25 18.3333Z" fill="black"/>
<path d="M8.74999 21.6667H2.08332C1.85332 21.6667 1.66666 21.48 1.66666 21.25C1.66666 21.02 1.85332 20.8333 2.08332 20.8333H8.74999C8.97999 20.8333 9.16666 21.02 9.16666 21.25C9.16666 21.48 8.97999 21.6667 8.74999 21.6667Z" fill="black"/>
<path d="M11.25 21.6667H10.4167C10.1867 21.6667 10 21.48 10 21.25C10 21.02 10.1867 20.8333 10.4167 20.8333H11.25C11.48 20.8333 11.6667 21.02 11.6667 21.25C11.6667 21.48 11.48 21.6667 11.25 21.6667Z" fill="black"/>
<path d="M11.25 20H4.58335C4.35335 20 4.16669 19.8133 4.16669 19.5833C4.16669 19.3533 4.35335 19.1667 4.58335 19.1667H11.25C11.48 19.1667 11.6667 19.3533 11.6667 19.5833C11.6667 19.8133 11.48 20 11.25 20Z" fill="black"/>
<path d="M2.91666 20H2.08332C1.85332 20 1.66666 19.8133 1.66666 19.5833C1.66666 19.3533 1.85332 19.1667 2.08332 19.1667H2.91666C3.14666 19.1667 3.33333 19.3533 3.33333 19.5833C3.33333 19.8133 3.14666 20 2.91666 20Z" fill="black"/>
</svg>
