<svg width="25" height="25" viewBox="0 0 25 25" fill="none" xmlns="http://www.w3.org/2000/svg">
<g clipPath="url(#clip0)">
<path d="M23.074 15.7048C22.7301 15.7048 22.4514 15.9836 22.4514 16.3275V21.8557C22.4502 22.887 21.6147 23.7226 20.5835 23.7236H3.11314C2.08191 23.7226 1.24647 22.887 1.24525 21.8557V5.63063C1.24647 4.59965 2.08191 3.76396 3.11314 3.76275H8.64141C8.98531 3.76275 9.26404 3.48402 9.26404 3.14012C9.26404 2.79645 8.98531 2.51749 8.64141 2.51749H3.11314C1.39459 2.51943 0.00193809 3.91208 -7.62939e-06 5.63063V21.856C0.00193809 23.5745 1.39459 24.9672 3.11314 24.9691H20.5835C22.302 24.9672 23.6947 23.5745 23.6966 21.856V16.3275C23.6966 15.9836 23.4179 15.7048 23.074 15.7048Z" fill="black"/>
<path d="M23.4501 0.915439C22.3558 -0.178783 20.5818 -0.178783 19.4876 0.915439L8.37948 12.0235C8.30335 12.0997 8.24838 12.194 8.21968 12.2976L6.75893 17.5713C6.69886 17.7875 6.75991 18.019 6.91848 18.1778C7.0773 18.3364 7.30884 18.3975 7.52506 18.3376L12.7987 16.8766C12.9023 16.8479 12.9967 16.793 13.0728 16.7169L24.1807 5.60851C25.2732 4.51356 25.2732 2.74101 24.1807 1.64606L23.4501 0.915439ZM9.73613 12.4283L18.8273 3.33688L21.7592 6.26884L12.6678 15.3602L9.73613 12.4283ZM9.15047 13.6035L11.4929 15.9461L8.25276 16.8438L9.15047 13.6035ZM23.3002 4.72807L22.6399 5.3884L19.7077 2.4562L20.3683 1.79588C20.9761 1.18808 21.9616 1.18808 22.5694 1.79588L23.3002 2.52649C23.9071 3.13502 23.9071 4.11979 23.3002 4.72807Z" fill="black"/>
</g>
<defs>
<clipPath id="clip0">
<rect width="25" height="25" fill="white"/>
</clipPath>
</defs>
</svg>
