<svg width="20" height="21" viewBox="0 0 20 21" fill="none" xmlns="http://www.w3.org/2000/svg">
<g clipPath="url(#clip0)">
<path d="M7.49999 9.42858C5.20249 9.42858 3.33333 7.506 3.33333 5.14286C3.33333 2.77972 5.20249 0.857147 7.49999 0.857147C9.79749 0.857147 11.6667 2.77972 11.6667 5.14286C11.6667 7.506 9.79749 9.42858 7.49999 9.42858ZM7.49999 1.71429C5.66166 1.71429 4.16666 3.252 4.16666 5.14286C4.16666 7.03372 5.66166 8.57143 7.49999 8.57143C9.33832 8.57143 10.8333 7.03372 10.8333 5.14286C10.8333 3.252 9.33832 1.71429 7.49999 1.71429Z" fill="#3D3D3D"/>
<path d="M14.5833 18.8571H0.416667C0.186667 18.8571 0 18.6651 0 18.4286V15C0 12.8734 1.6825 11.1428 3.75 11.1428H11.25C13.3175 11.1428 15 12.8734 15 15V18.4286C15 18.6651 14.8133 18.8571 14.5833 18.8571ZM0.833333 18H14.1667V15C14.1667 13.3457 12.8583 12 11.25 12H3.75C2.14167 12 0.833333 13.3457 0.833333 15V18Z" fill="#3D3D3D"/>
<path d="M19.5833 9.42856H12.9167C12.6867 9.42856 12.5 9.23656 12.5 8.99998C12.5 8.76341 12.6867 8.57141 12.9167 8.57141H19.5833C19.8133 8.57141 20 8.76341 20 8.99998C20 9.23656 19.8133 9.42856 19.5833 9.42856Z" fill="#3D3D3D"/>
<path d="M16.25 12.8571C16.1433 12.8571 16.0367 12.8151 15.955 12.732C15.7925 12.5648 15.7925 12.2931 15.955 12.126L18.9933 9.00083L15.955 5.87569C15.7925 5.70855 15.7925 5.43683 15.955 5.26969C16.1175 5.10255 16.3817 5.10255 16.5442 5.26969L19.8775 8.69826C20.04 8.8654 20.04 9.13712 19.8775 9.30426L16.5442 12.7328C16.4633 12.8151 16.3567 12.8571 16.25 12.8571Z" fill="#3D3D3D"/>
</g>
<defs>
<clipPath id="clip0">
<rect width="20" height="20.5714" fill="white"/>
</clipPath>
</defs>
</svg>
