<svg width="33" height="35" viewBox="0 0 33 35" fill="none" xmlns="http://www.w3.org/2000/svg">
<path d="M16.5199 14.575C15.0015 14.575 13.7666 15.8824 13.7666 17.49C13.7666 19.0976 15.0015 20.405 16.5199 20.405C18.0384 20.405 19.2733 19.0976 19.2733 17.49C19.2733 15.8824 18.0384 14.575 16.5199 14.575Z" fill="url(#paint0_linear)"/>
<path d="M30.2467 0C28.7282 0 27.4934 1.30738 27.4934 2.915C27.4934 4.52262 28.7282 5.83 30.2467 5.83C31.7652 5.83 33 4.52262 33 2.915C33 1.30738 31.7652 0 30.2467 0Z" fill="url(#paint1_linear)"/>
<path d="M20.2466 3.26916C19.7083 2.69928 18.8383 2.69928 18.3 3.26916C17.7617 3.83905 17.7617 4.76019 18.3 5.33007L18.8272 5.88829L13.9841 11.0158C13.1568 10.8176 12.3101 10.717 11.458 10.717C5.14046 10.717 0 16.1593 0 22.8492C0 29.5392 5.14046 34.98 11.458 34.98C17.7755 34.98 22.9159 29.5392 22.9159 22.8492C22.9159 21.9295 22.8182 21.0186 22.6268 20.131L27.4534 15.0224L27.9366 15.534C28.2051 15.8168 28.5575 15.9596 28.9099 15.9596C29.2624 15.9596 29.6148 15.8168 29.8832 15.5326C30.4215 14.9627 30.4215 14.0415 29.8832 13.4717L20.2466 3.26916ZM20.1186 18.6633C19.7579 19.0451 19.6257 19.6077 19.7758 20.1252C20.0332 21.004 20.1626 21.9193 20.1626 22.8478C20.1626 23.5634 20.0773 24.2586 19.9313 24.9276C17.4396 24.7498 16.14 23.868 14.7812 22.9338C13.1802 21.8333 11.5254 20.6965 8.22143 20.6965C5.75858 20.6965 4.00609 21.364 2.78912 22.0986C3.15118 17.3676 6.89708 13.632 11.458 13.632C12.3184 13.632 13.1733 13.7675 13.9965 14.0313C14.4811 14.1858 15.0098 14.0503 15.3718 13.6684L20.7739 7.9492L25.5068 12.9601L20.1186 18.6633Z" fill="url(#paint2_linear)"/>
<defs>
<linearGradient id="paint0_linear" x1="16.5199" y1="14.575" x2="16.5199" y2="20.405" gradientUnits="userSpaceOnUse">
<stop stop-color="#519D9E"/>
<stop offset="1" stop-color="#D1B6E1"/>
</linearGradient>
<linearGradient id="paint1_linear" x1="30.2467" y1="0" x2="30.2467" y2="5.83" gradientUnits="userSpaceOnUse">
<stop stop-color="#519D9E"/>
<stop offset="1" stop-color="#D1B6E1"/>
</linearGradient>
<linearGradient id="paint2_linear" x1="15.1435" y1="2.84175" x2="15.1435" y2="34.98" gradientUnits="userSpaceOnUse">
<stop stop-color="#519D9E"/>
<stop offset="1" stop-color="#D1B6E1"/>
</linearGradient>
</defs>
</svg>
