<svg width="150" height="34" viewBox="0 0 150 34" fill="none" xmlns="http://www.w3.org/2000/svg">
<path d="M33.8758 12.0364C33.8758 14.2146 32.8507 17.5309 31.2219 20.3216C30.4144 21.7053 29.4905 22.903 28.5287 23.7427C27.5595 24.5889 26.6369 25 25.8076 25C24.9678 25 23.9842 24.5799 22.924 23.7195C21.8764 22.8694 20.8455 21.6618 19.933 20.2758C18.0854 17.4695 16.8758 14.1723 16.8758 12.0364C16.8758 9.97241 18.0246 7.70269 19.8058 5.91689C21.5891 4.12895 23.8322 3 25.8076 3C27.761 3 29.7756 4.10778 31.3364 5.87309C32.8933 7.63397 33.8758 9.91572 33.8758 12.0364Z" stroke="#D1B6E1" strokeWidth="2"/>
<path d="M24.5888 10.1649C25.6729 12.0427 26.4316 15.4199 26.4017 18.6493C26.3869 20.25 26.1779 21.7494 25.7572 22.9592C25.3335 24.1779 24.7323 25.0013 24.0036 25.422C23.266 25.8479 22.1946 25.98 20.8408 25.7712C19.5026 25.5648 18.0012 25.0414 16.5146 24.3046C13.5038 22.8124 10.8073 20.576 9.74446 18.7352C8.71811 16.9575 8.58792 14.422 9.25203 11.982C9.91653 9.54048 11.3117 7.43185 13.0407 6.43365C14.7509 5.44625 17.0647 5.38955 19.3056 6.12719C21.5419 6.86333 23.5338 8.33766 24.5888 10.1649Z" stroke="#D1B6E1" strokeWidth="2"/>
<path d="M17.7353 10.8688C19.6131 11.9529 21.9587 14.4984 23.5475 17.31C24.3351 18.7038 24.9038 20.1067 25.1444 21.3648C25.3867 22.6321 25.2778 23.6458 24.8571 24.3745C24.4312 25.1121 23.5694 25.7621 22.2926 26.2582C21.0305 26.7486 19.4686 27.046 17.8127 27.1512C14.4592 27.3643 11.0057 26.7759 9.16492 25.7131C7.38722 24.6867 6.00671 22.556 5.36183 20.1108C4.71655 17.6642 4.87051 15.1404 5.86872 13.4115C6.85611 11.7013 8.8316 10.4953 11.1411 10.0136C13.4458 9.533 15.9081 9.81384 17.7353 10.8688Z" stroke="#D1B6E1" strokeWidth="2"/>
<path d="M40.5464 17.7353C39.4622 19.6131 36.9168 21.9587 34.1051 23.5475C32.7114 24.3351 31.3084 24.9038 30.0504 25.1444C28.7831 25.3867 27.7694 25.2778 27.0407 24.8571C26.303 24.4312 25.653 23.5694 25.1569 22.2926C24.6666 21.0305 24.3691 19.4686 24.2639 17.8127C24.0508 14.4592 24.6393 11.0057 25.702 9.16492C26.7284 7.38722 28.8591 6.00671 31.3043 5.36183C33.751 4.71655 36.2747 4.87051 38.0036 5.86872C39.7139 6.85611 40.9199 8.8316 41.4015 11.1411C41.8821 13.4458 41.6013 15.9081 40.5464 17.7353Z" stroke="#D1B6E1" strokeWidth="2"/>
<path d="M41.0016 24.713C39.1238 25.7972 35.7466 26.5558 32.5172 26.5259C30.9165 26.5111 29.4171 26.3022 28.2073 25.8815C26.9886 25.4577 26.1652 24.8566 25.7445 24.1279C25.3186 23.3902 25.1865 22.3189 25.3953 20.9651C25.6017 19.6269 26.1251 18.1255 26.8619 16.6388C28.3541 13.6281 30.5905 10.9315 32.4313 9.86872C34.209 8.84236 36.7445 8.71217 39.1845 9.37628C41.626 10.0408 43.7347 11.436 44.7329 13.1649C45.7203 14.8751 45.777 17.189 45.0393 19.4298C44.3032 21.6661 42.8288 23.6581 41.0016 24.713Z" stroke="#D1B6E1" strokeWidth="2"/>
</svg>
