<svg width="63" height="55" viewBox="0 0 63 55" fill="none" xmlns="http://www.w3.org/2000/svg">
<path d="M39.793 22.7667C39.793 24.8291 38.8075 28.058 37.2073 30.7999C36.4174 32.1533 35.5257 33.3031 34.6171 34.0964C33.6972 34.8995 32.8874 35.2303 32.2248 35.2303C31.5464 35.2303 30.6721 34.886 29.6562 34.0616C28.6595 33.2528 27.6612 32.0882 26.7678 30.7312C24.9473 27.966 23.793 24.7656 23.793 22.7667C23.793 20.8758 24.8561 18.7257 26.577 17.0003C28.3011 15.2717 30.4243 14.2303 32.2248 14.2303C33.9924 14.2303 35.8807 15.24 37.3791 16.9346C38.8715 18.6226 39.793 20.7907 39.793 22.7667Z" stroke="#D1B6E1" stroke-width="3"/>
<path d="M30.573 21.1452C31.5986 22.9216 32.3483 26.2023 32.3189 29.375C32.3044 30.9404 32.0997 32.3822 31.7022 33.5253C31.3001 34.6818 30.7567 35.3811 30.1708 35.7194C29.5716 36.0654 28.6313 36.2074 27.3342 36.0074C26.0606 35.8109 24.6091 35.3082 23.1538 34.5869C20.1871 33.1165 17.5883 30.9365 16.5947 29.2156C15.6558 27.5894 15.5099 25.2017 16.1517 22.8436C16.7941 20.4834 18.1288 18.5087 19.7079 17.597C21.2589 16.7015 23.4157 16.6245 25.5665 17.3325C27.7104 18.0382 29.5912 19.4447 30.573 21.1452Z" stroke="#D1B6E1" stroke-width="3"/>
<path d="M23.9023 22.0321C25.6786 23.0577 27.9683 25.5241 29.5292 28.2864C30.2994 29.6493 30.843 31.0003 31.0703 32.189C31.3002 33.3916 31.1794 34.2689 30.8411 34.8548C30.4951 35.4541 29.7518 36.0472 28.5285 36.5225C27.3273 36.9892 25.8189 37.2796 24.198 37.3826C20.8935 37.5925 17.5528 37.004 15.8319 36.0104C14.2057 35.0715 12.8855 33.0767 12.2623 30.7137C11.6385 28.3484 11.807 25.9709 12.7187 24.3918C13.6142 22.8408 15.4435 21.6957 17.6601 21.2335C19.8697 20.7727 22.2018 21.0504 23.9023 22.0321Z" stroke="#D1B6E1" stroke-width="3"/>
<path d="M46.5305 28.2156C45.5049 29.992 43.0386 32.2817 40.2763 33.8425C38.9133 34.6127 37.5623 35.1563 36.3736 35.3836C35.171 35.6136 34.2937 35.4927 33.7078 35.1545C33.1085 34.8085 32.5154 34.0652 32.0401 32.8419C31.5734 31.6407 31.283 30.1322 31.18 28.5113C30.9701 25.2069 31.5586 21.8662 32.5522 20.1453C33.4911 18.519 35.4859 17.1989 37.849 16.5756C40.2142 15.9518 42.5917 16.1204 44.1708 17.0321C45.7218 17.9276 46.8669 19.7569 47.3292 21.9735C47.79 24.1831 47.5123 26.5152 46.5305 28.2156Z" stroke="#D1B6E1" stroke-width="3"/>
<path d="M47.1691 35.0104C45.3927 36.036 42.112 36.7857 38.9393 36.7563C37.3739 36.7418 35.9321 36.5371 34.789 36.1396C33.6326 35.7374 32.9332 35.1941 32.5949 34.6082C32.2489 34.0089 32.1069 33.0687 32.307 31.7716C32.5034 30.498 33.0061 29.0465 33.7274 27.5912C35.1978 24.6245 37.3779 22.0256 39.0988 21.0321C40.725 20.0932 43.1126 19.9473 45.4707 20.5891C47.831 21.2315 49.8056 22.5662 50.7173 24.1453C51.6128 25.6963 51.6899 27.8531 50.9819 30.0039C50.2761 32.1478 48.8696 34.0286 47.1691 35.0104Z" stroke="#D1B6E1" stroke-width="3"/>
</svg>
