<svg width="51" height="35" viewBox="0 0 51 35" fill="none" xmlns="http://www.w3.org/2000/svg">
<path d="M33.793 12.7667C33.793 14.8291 32.8075 18.058 31.2073 20.7999C30.4174 22.1533 29.5257 23.3031 28.6171 24.0964C27.6972 24.8995 26.8874 25.2303 26.2248 25.2303C25.5464 25.2303 24.6721 24.886 23.6562 24.0616C22.6595 23.2528 21.6612 22.0882 20.7678 20.7312C18.9473 17.966 17.793 14.7656 17.793 12.7667C17.793 10.8758 18.8561 8.72573 20.577 7.00033C22.3011 5.27172 24.4243 4.23035 26.2248 4.23035C27.9924 4.23035 29.8807 5.23996 31.3791 6.93462C32.8715 8.62264 33.793 10.7907 33.793 12.7667Z" stroke="#D1B6E1" stroke-width="3"/>
<path d="M24.573 11.1452C25.5986 12.9216 26.3483 16.2023 26.3189 19.375C26.3044 20.9404 26.0997 22.3822 25.7022 23.5253C25.3001 24.6818 24.7567 25.3811 24.1708 25.7194C23.5716 26.0654 22.6313 26.2074 21.3342 26.0074C20.0606 25.8109 18.6091 25.3082 17.1538 24.5869C14.1871 23.1165 11.5883 20.9365 10.5947 19.2156C9.6558 17.5894 9.5099 15.2017 10.1517 12.8436C10.7941 10.4834 12.1288 8.50869 13.7079 7.59701C15.2589 6.70153 17.4157 6.62448 19.5665 7.33246C21.7104 8.0382 23.5912 9.44473 24.573 11.1452Z" stroke="#D1B6E1" stroke-width="3"/>
<path d="M17.9023 12.0321C19.6786 13.0577 21.9683 15.5241 23.5292 18.2864C24.2994 19.6493 24.843 21.0003 25.0703 22.189C25.3002 23.3916 25.1794 24.2689 24.8411 24.8548C24.4951 25.4541 23.7518 26.0472 22.5285 26.5225C21.3273 26.9892 19.8189 27.2796 18.198 27.3826C14.8935 27.5925 11.5528 27.004 9.83191 26.0104C8.20569 25.0715 6.88551 23.0767 6.26229 20.7137C5.63848 18.3484 5.80703 15.9709 6.71872 14.3918C7.6142 12.8408 9.44351 11.6957 11.6601 11.2335C13.8697 10.7727 16.2018 11.0504 17.9023 12.0321Z" stroke="#D1B6E1" stroke-width="3"/>
<path d="M40.5305 18.2156C39.5049 19.992 37.0386 22.2817 34.2763 23.8425C32.9133 24.6127 31.5623 25.1563 30.3736 25.3836C29.171 25.6136 28.2937 25.4927 27.7078 25.1545C27.1085 24.8085 26.5154 24.0652 26.0401 22.8419C25.5734 21.6407 25.283 20.1322 25.18 18.5113C24.9701 15.2069 25.5586 11.8662 26.5522 10.1453C27.4911 8.51905 29.4859 7.19887 31.849 6.57564C34.2142 5.95183 36.5917 6.12039 38.1708 7.03208C39.7218 7.92755 40.8669 9.75687 41.3292 11.9735C41.79 14.1831 41.5123 16.5152 40.5305 18.2156Z" stroke="#D1B6E1" stroke-width="3"/>
<path d="M41.1691 25.0104C39.3927 26.036 36.112 26.7857 32.9393 26.7563C31.3739 26.7418 29.9321 26.5371 28.789 26.1396C27.6326 25.7374 26.9332 25.1941 26.5949 24.6082C26.2489 24.0089 26.1069 23.0687 26.307 21.7716C26.5034 20.498 27.0061 19.0465 27.7274 17.5912C29.1978 14.6245 31.3779 12.0256 33.0988 11.0321C34.725 10.0932 37.1126 9.94727 39.4707 10.5891C41.831 11.2315 43.8056 12.5662 44.7173 14.1453C45.6128 15.6963 45.6899 17.8531 44.9819 20.0039C44.2761 22.1478 42.8696 24.0286 41.1691 25.0104Z" stroke="#D1B6E1" stroke-width="3"/>
</svg>
